<svg width="14" height="14" viewBox="0 0 14 14" fill="none" xmlns="http://www.w3.org/2000/svg">
<path d="M0.688324 7C0.867213 6.01222 1.25805 5.11972 1.86082 4.3225C2.4636 3.52528 3.20444 2.90111 4.08332 2.45C5.0011 1.98333 5.97332 1.75 6.99999 1.75C8.02666 1.75 8.99888 1.98333 9.91666 2.45C10.7955 2.90111 11.5364 3.52528 12.1392 4.3225C12.7419 5.11972 13.1328 6.01222 13.3117 7C13.1328 7.98778 12.7419 8.88028 12.1392 9.6775C11.5364 10.4747 10.7955 11.0989 9.91666 11.55C8.99888 12.0167 8.02666 12.25 6.99999 12.25C5.97332 12.25 5.0011 12.0167 4.08332 11.55C3.20444 11.0989 2.4636 10.4747 1.86082 9.6775C1.25805 8.88028 0.867213 7.98778 0.688324 7ZM6.99999 9.91667C7.52888 9.91667 8.01694 9.78639 8.46416 9.52583C8.91138 9.26528 9.26527 8.91139 9.52582 8.46417C9.78638 8.01694 9.91666 7.52889 9.91666 7C9.91666 6.47111 9.78638 5.98306 9.52582 5.53583C9.26527 5.08861 8.91138 4.73472 8.46416 4.47417C8.01694 4.21361 7.52888 4.08333 6.99999 4.08333C6.4711 4.08333 5.98305 4.21361 5.53582 4.47417C5.0886 4.73472 4.73471 5.08861 4.47416 5.53583C4.2136 5.98306 4.08332 6.47111 4.08332 7C4.08332 7.52889 4.2136 8.01694 4.47416 8.46417C4.73471 8.91139 5.0886 9.26528 5.53582 9.52583C5.98305 9.78639 6.4711 9.91667 6.99999 9.91667ZM6.99999 8.75C6.6811 8.75 6.38749 8.67222 6.11916 8.51667C5.85082 8.36111 5.63888 8.14917 5.48332 7.88083C5.32777 7.6125 5.24999 7.31889 5.24999 7C5.24999 6.68111 5.32777 6.3875 5.48332 6.11917C5.63888 5.85083 5.85082 5.63889 6.11916 5.48333C6.38749 5.32778 6.6811 5.25 6.99999 5.25C7.31888 5.25 7.61249 5.32778 7.88082 5.48333C8.14916 5.63889 8.3611 5.85083 8.51666 6.11917C8.67221 6.3875 8.74999 6.68111 8.74999 7C8.74999 7.31889 8.67221 7.6125 8.51666 7.88083C8.3611 8.14917 8.14916 8.36111 7.88082 8.51667C7.61249 8.67222 7.31888 8.75 6.99999 8.75Z" fill="#797979"/>
</svg>
